<svg xmlns="http://www.w3.org/2000/svg" width="30"  height="100" viewBox="0 0 154 160" version="1.1"><path d="M 103.386 18.437 C 102.551 20.613, 103.355 21.303, 108.118 22.500 L 112.097 23.500 68.048 54.308 C 43.822 71.253, 24 85.739, 24 86.499 C 24 89.590, 26.555 88.996, 33.350 84.327 C 43.143 77.596, 88.855 45.585, 103.285 35.353 L 115.069 26.997 114.406 31.998 C 113.791 36.630, 113.899 37, 115.852 37 C 117.233 37, 118.125 36.223, 118.435 34.750 C 121.615 19.620, 121.608 19.598, 113.733 18.571 C 110.855 18.195, 107.492 17.641, 106.259 17.338 C 104.739 16.965, 103.815 17.318, 103.386 18.437 M 107.469 53.250 C 107.212 53.938, 107.114 71.713, 107.251 92.750 L 107.500 131 102.750 131 L 98 131 98 100.962 L 98 70.925 88.750 71.212 L 79.500 71.500 79.235 101.250 L 78.970 131 74.505 131 L 70.041 131 69.770 110.250 L 69.500 89.500 61.655 89.206 C 56.732 89.022, 53.287 89.347, 52.405 90.079 C 51.285 91.009, 51 95.269, 51 111.122 L 51 131 46.533 131 L 42.066 131 41.783 119.750 L 41.500 108.500 32.500 108.500 L 23.500 108.500 23.217 119.750 L 22.934 131 18.936 131 C 16.254 131, 14.742 131.508, 14.345 132.543 C 14.019 133.392, 13.976 134.310, 14.249 134.583 C 14.992 135.325, 133.854 135.208, 135.059 134.464 C 137.091 133.207, 133.789 131, 129.878 131 L 126 131 126 91.500 L 126 52 116.969 52 C 110.660 52, 107.796 52.377, 107.469 53.250" stroke="none" fill="#f4f6f9" fill-rule="evenodd"/>
<path d="M 0 80.006 L 0 160.012 77.250 159.756 L 154.500 159.500 154.756 79.750 L 155.012 -0 77.506 -0 L 0 0 0 80.006 M 0.477 80.500 C 0.477 124.500, 0.600 142.354, 0.750 120.176 C 0.900 97.997, 0.900 61.997, 0.750 40.176 C 0.599 18.354, 0.476 36.500, 0.477 80.500 M 103.386 18.437 C 102.551 20.613, 103.355 21.303, 108.118 22.500 L 112.097 23.500 68.048 54.308 C 43.822 71.253, 24 85.739, 24 86.499 C 24 89.590, 26.555 88.996, 33.350 84.327 C 43.143 77.596, 88.855 45.585, 103.285 35.353 L 115.069 26.997 114.406 31.998 C 113.791 36.630, 113.899 37, 115.852 37 C 117.233 37, 118.125 36.223, 118.435 34.750 C 121.615 19.620, 121.608 19.598, 113.733 18.571 C 110.855 18.195, 107.492 17.641, 106.259 17.338 C 104.739 16.965, 103.815 17.318, 103.386 18.437 M 107.469 53.250 C 107.212 53.938, 107.114 71.713, 107.251 92.750 L 107.500 131 102.750 131 L 98 131 98 100.962 L 98 70.925 88.750 71.212 L 79.500 71.500 79.235 101.250 L 78.970 131 74.505 131 L 70.041 131 69.770 110.250 L 69.500 89.500 61.655 89.206 C 56.732 89.022, 53.287 89.347, 52.405 90.079 C 51.285 91.009, 51 95.269, 51 111.122 L 51 131 46.533 131 L 42.066 131 41.783 119.750 L 41.500 108.500 32.500 108.500 L 23.500 108.500 23.217 119.750 L 22.934 131 18.936 131 C 16.254 131, 14.742 131.508, 14.345 132.543 C 14.019 133.392, 13.976 134.310, 14.249 134.583 C 14.992 135.325, 133.854 135.208, 135.059 134.464 C 137.091 133.207, 133.789 131, 129.878 131 L 126 131 126 91.500 L 126 52 116.969 52 C 110.660 52, 107.796 52.377, 107.469 53.250" stroke="none" fill="#5473fb" fill-rule="evenodd"/></svg>